<svg xmlns="http://www.w3.org/2000/svg" xmlns:xlink="http://www.w3.org/1999/xlink" version="1.1" x="0px" y="0px" viewBox="0 0 100 125" style="enable-background:new 0 0 100 100;" xml:space="preserve"><path d="M88.5906677,60.1732292H11.6809702c-0.7773905,0-1.4076395,0.630249-1.4076395,1.4075089v0.0001183  c0,1.917469,1.5545397,3.472023,3.4721403,3.472023h72.7806931c1.9175873,0,3.4721375-1.5545502,3.4721375-3.4720192V61.580761  C89.9983063,60.8035011,89.3680496,60.1732292,88.5906677,60.1732292z"/><path d="M49.1796188,66.9267578c2.7422905,0,5.4845695,0.0003586,8.22686-0.0003433  c0.4751587-0.0001221,0.9428711,0.0157394,1.3962097,0.1999893c0.9775391,0.3972931,1.6068001,1.2829132,1.5816689,2.2630997  c-0.0250511,0.9769363-0.5854797,1.6428528-1.7569389,1.9404831c-2.72089,0.6913223-5.4531708,1.3376999-8.1765099,2.0195465  c-1.1808395,0.2956467-2.3520012,0.6303406-3.5256805,0.9540863c-0.6333504,0.1747131-1.1944695,0.5044937-1.1011086,1.2394485  c0.0914001,0.7194672,0.6519203,1.0800095,1.3608017,1.1496201c3.3021317,0.3242874,6.6139984,0.3909073,9.9301796,0.4340363  c2.3054695,0.0299911,4.4351311-0.3930893,6.584671-1.3104477c5.3828468-2.2972794,10.8529701-4.3904572,16.2948799-6.5484009  c0.967598-0.3836899,1.9336395-0.8335114,3.0368271-0.6045532c0.8184433,0.1698685,1.5124969,0.509613,1.6781998,1.3968735  c0.1637268,0.8767624-0.0232773,1.6836777-0.80159,2.2548828c-0.900383,0.6607895-1.774147,1.360817-2.7002335,1.9831619  c-6.2377014,4.1915588-12.4933701,8.3563995-18.7227898,12.5601501c-0.8499298,0.5735474-1.7697601,0.6473236-2.7081795,0.6682663  c-4.5671387,0.1020813-9.1357002,0.1452408-13.7023506,0.2629166c-3.5844498,0.0923462-7.172802,0.1795273-10.7478905,0.4321136  c-1.950779,0.1378326-3.837719,0.7832336-5.7266808,1.3147278c-1.4258804,0.4011917-1.44417,0.3992233-1.7189503-1.0198135  c-0.9642506-4.9794388-1.9067307-9.9631119-2.883009-14.9401932c-0.1341305-0.6837921,0.0319996-1.0730133,0.6874809-1.3468781  c3.7775307-1.5783005,7.5156097-3.2510605,11.3859901-4.6025696c1.3312111-0.4648514,2.6976395-0.6485672,4.0847397-0.6662292  c2.6740913-0.0341034,5.3489189-0.0099411,8.0234299-0.0099411C49.1796188,66.9427414,49.1796188,66.9347534,49.1796188,66.9267578z  "/><path d="M8.6517496,84.8707886c-0.0012302-3.994339,0.0163698-7.9888229-0.0155602-11.982933  c-0.00669-0.8354034,0.2468996-1.193367,1.1154003-1.3049164c3.1499796-0.4045563,6.2911005-0.8794708,9.4325991-1.3477325  c0.6784096-0.1011124,1.0446892,0.0334702,1.2114906,0.7983932c1.5705109,7.201767,3.1760406,14.3959579,4.7812805,21.5901184  c0.1323204,0.5930328,0.0422192,0.9185333-0.6347694,1.0977783c-4.9697094,1.3158264-9.9317198,2.661087-14.8880301,4.026619  c-0.7916098,0.2180862-1.01647-0.0057831-1.0119295-0.7928009C8.6654902,92.9272537,8.6529903,88.8989868,8.6517496,84.8707886z   M17.6687908,92.0841522c1.2389107-0.0163193,2.3305492-1.122879,2.3222694-2.3540039  c-0.0083504-1.2415771-1.1115704-2.3264694-2.35285-2.3137436c-1.2567902,0.0128937-2.3269501,1.0977936-2.3150301,2.3469391  C15.3350801,91.0120087,16.4351101,92.1004028,17.6687908,92.0841522z"/><path d="M48.0723686,18.5529499c0-4.436697,3.5966568-8.03335,8.0333862-8.03335c4.4366951,0,8.0333519,3.596653,8.0333519,8.03335  c0,0.2111511-0.0155716,0.4183998-0.0315552,0.6254673h1.8014755l1.4395905-8.5816851  c0.4144287-2.470644,1.8700638-4.6490993,3.9937363-5.9772038l2.3048172-1.4415038l0.8311996,1.3289874l-2.3048096,1.441504  c-1.7437134,1.0904064-2.9389725,2.879179-3.2791672,4.9074163l-1.3961105,8.322485h1.7761078  c0,0-1.2194901,1.738369,1.0312805,8.8956299c0.9784393,2.5904503,2.6171341,9.9890938-4.0512543,14.8314171  c-1.3792038,1.0015259-2.23983,1.8237877-2.241272,3.5283203c-0.0005417,0.663166-0.0002899,6.7276306,0.000412,7.3434868  c0.0024261,2.0965004,7.2841721,4.2236671,7.2105331,4.5916672c-0.2588272,1.2936783-16.1953392,1.0996819-16.4541702-0.1940346  c-0.0736351-0.368,7.0337334-2.3011322,7.0362053-4.3976326c0.0006981-0.6158943,0.0009575-6.6803207,0.0004005-7.3434868  c-0.0014725-1.7045326-0.8620949-2.5267944-2.2413025-3.5283203c-6.668354-4.8423233-5.0296516-12.2409668-4.051281-14.8314171  c0.1669312-0.5307693,0.3093071-1.0226955,0.4399719-1.495369C51.5879517,26.4968681,48.0723686,22.9383945,48.0723686,18.5529499z   M51.5919991,14.1387491l-1.1814957,1.6392164c-0.3635063,0.4972668-0.0265083,1.1990204,0.5888329,1.2261925l3.8870392,0.6324253  l-2.0052986-3.4317465C52.6006317,13.7249136,51.9200478,13.6900091,51.5919991,14.1387491z M56.0353584,12.2399626  l-1.9945488,0.3236332c-0.6086426,0.0945845-0.8665504,0.8290701-0.4506531,1.2834063l2.3013535,3.1957417l1.0086327-3.8445511  C57.0411949,12.6605005,56.5846481,12.1546192,56.0353584,12.2399626z M60.6194763,22.9671497l1.18153-1.6392174  c0.3634682-0.4972286,0.0264702-1.1989822-0.588871-1.2261524l-3.8870392-0.6324272l2.0053406,3.4317455  C59.610878,23.3810215,60.2914276,23.4158897,60.6194763,22.9671497z M60.5199585,14.0392294l-1.6392212-1.181531  c-0.4972649-0.3635063-1.1990166-0.026473-1.2261925,0.5888691l-0.6324234,3.8870392l3.4317474-2.0053377  C60.9337921,15.0478258,60.9686966,14.3672781,60.5199585,14.0392294z M62.4187393,18.4825897l-0.3236313-1.9945488  c-0.0945854-0.6086407-0.8290672-0.8665886-1.2834053-0.4506912l-3.1957779,2.3013916l3.8445854,1.0086327  C61.9982033,19.4884243,62.5040855,19.0318432,62.4187393,18.4825897z M68.1423798,34.9043999  c-0.1524277,0.8011627-0.3914566,1.6007462-0.6487732,2.3970833c-0.2593842,0.797039-0.5043716,1.5993423-0.8761597,2.3418922  l0.0896454,0.0536804c0.443924-0.7257195,0.7533417-1.5142555,1.0894928-2.2822456  c0.3276443-0.7735481,0.6593704-1.5553818,0.8817902-2.3897171c0.2170792-0.8344841,0.3141708-1.7156143,0.2768326-2.5862541  c-0.0363388-0.8712292-0.1864014-1.725666-0.3754272-2.5603352c-0.1929321-0.85326-0.408577-1.620882-0.5651627-2.4218597  c-0.1554413-0.8016777-0.2965317-1.6098747-0.427124-2.4251747c-0.2493286-1.6327744-0.4280548-3.2885971-0.6207581-4.9657345  l-0.1043396-0.0051556c-0.3061752,1.6735306-0.3644257,3.3775845-0.2532349,5.0781059  c0.0553741,0.8507195,0.1642838,1.701807,0.3492889,2.5420361c0.1863022,0.8415146,0.4842377,1.6723137,0.7404175,2.4337502  C68.2054062,31.6771793,68.4599762,33.2997169,68.1423798,34.9043999z M56.1761131,24.8659706l1.9945526-0.3236675  c0.6086388-0.0945492,0.8665886-0.8290691,0.4506912-1.2834072l-2.3013954-3.1957397l-1.0086327,3.8445854  C55.1702805,24.4453983,55.6268616,24.9513168,56.1761131,24.8659706z M51.6915169,23.0667057l1.6392517,1.1814957  c0.4972343,0.3635044,1.1989861,0.0265083,1.2261543-0.5888329l0.6324272-3.8870392l-3.4317436,2.0053005  C51.2776794,22.058073,51.2427788,22.7386551,51.6915169,23.0667057z M51.3998108,21.0685501l3.1957359-2.3013554  l-3.8445854-1.0086346c-0.5376549-0.1410503-1.0435753,0.3154964-0.9582291,0.8647861l0.3236694,1.9945488  C50.2109489,21.2265339,50.9454727,21.4844475,51.3998108,21.0685501z"/><path d="M24.1260891,4.7707496l4.345396,2.3070374c2.9553318,1.5711188,4.9995384,4.3629346,5.6186371,7.6511865  l1.5010338,8.0015717c3.1422386-0.2861843,6.3253632-0.2978401,9.4617538,0l1.0746498,0.0993156  c0.6775246,0.0116558,1.3082848,0.2861824,1.7813683,0.7767715c0.4789352,0.5023155,0.730072,1.1623058,0.6950302,1.857338  l-1.2849007,30.0614662c-0.011692,0.3562698-0.1226616,0.6775284-0.2920265,0.9637108  c0.71838,0.8118134,0.3971558,1.606163-1.0104446,2.0383606c-2.6866531,0.8176537-5.4550858,0.8526993-8.2235527,0.5314751  c-1.1797714-0.1401672-2.4296684-0.1168213-3.4576149-0.8060036c-0.7242279-0.484745-1.4951897-1.0921898-0.525631-1.9039993  c-0.0993195-0.2277946-0.1635551-0.4731255-0.181057-0.73592l-1.670435-30.1198959  c-0.0408897-0.6891823,0.2102871-1.3725586,0.6833744-1.8748379c0.2920303-0.3037224,0.6599884-0.5198212,1.0571442-0.6482983  l-1.483532-7.8906336c-0.5081272-2.7158861-2.2018738-5.0170412-4.6432705-6.3136702l-4.3453598-2.3128834L24.1260891,4.7707496z   M38.9436455,40.544323c1.2206993-0.7183762,1.9449272-1.9682732,1.109726-4.1176033  c-0.5607071-1.448452,1.7171326-2.2544556,3.8197289-2.680809c0.1109734,1.1856232,0.8293533,2.2953453,0.922821,3.4868126  c0.0817413,1.1856575,0.146019,2.3771248,0.0992813,3.5685883c-0.0350418,1.1915016-0.1285095,2.3829689-0.4146957,3.5452385  l0.0467339,0.01754c0.3621178-1.1506119,0.5314789-2.3479271,0.6366425-3.5452385  c0.0934334-1.2031593,0.0875893-2.4063187,0.0583916-3.609478c-0.0350418-1.2031593-0.0934334-2.4063148-0.2745247-3.5978203  c0-0.0175018-0.0058098-0.0350418-0.0058098-0.0525436c0.6891823-0.1109734,1.2848969-0.1752129,1.6645508-0.2102547  l0.3387642-7.9548702c0.0116577-0.2394848-0.0759315-0.4614296-0.2394867-0.6307926  c-0.163517-0.175209-0.3854637-0.2686806-0.6190987-0.2686806l-1.1856194-0.1051273  c-2.9903793-0.2861805-6.0099831-0.2803364-9.0003624-0.0174999L38.9436455,40.544323z M33.6170349,25.4055424l0.8935928,16.1083393  c0.6950302-0.011692,1.658741-0.0759277,2.6166077-0.2920265l-3.1188889-16.5872765  c-0.0583916,0.0350437-0.1109734,0.0759335-0.1577072,0.1285133C33.6871223,24.9383011,33.6053467,25.1660938,33.6170349,25.4055424  z"/><text x="0" y="115" fill="#000000" font-size="5px" font-weight="bold" font-family="'Helvetica Neue', Helvetica, Arial-Unicode, Arial, Sans-serif">Created by Kristina Margaryan</text><text x="0" y="120" fill="#000000" font-size="5px" font-weight="bold" font-family="'Helvetica Neue', Helvetica, Arial-Unicode, Arial, Sans-serif">from the Noun Project</text></svg>